# xmcd
#
# Track frame offsets: 
#        150
#        34248
#        64159
#        89243
#        154534
#        192080
#        211744
#        229367
#        259452
#        313445
#
# Disc length: 4518 seconds
#
# Revision: 0
# Processed by: cddbd v1.5.1PL0 Copyright (c) Steve Scherf et al.
# Submitted via: ExactAudioCopy v0.95a5
#
DISCID=9511a40a
DTITLE=Soju Kings - Live at Funky Funky 2
DYEAR=2004
DGENRE=Blues
TTITLE0=Poor Man's Game
TTITLE1=Dust My Broom
TTITLE2=Soju King
TTITLE3=Medley
TTITLE4=Get With You
TTITLE5=Jellybean
TTITLE6=Family Song
TTITLE7=Everyday I Have the Blues
TTITLE8=Crosscut Saw
TTITLE9=Got My Mojo Workin
EXTD=
EXTT0=
EXTT1=
EXTT2=
EXTT3=
EXTT4=
EXTT5=
EXTT6=
EXTT7=
EXTT8=
EXTT9=
PLAYORDER=
